<?xml version="1.0" encoding="UTF-8"?>
<svg id="Layer_2" data-name="Layer 2" xmlns="http://www.w3.org/2000/svg" viewBox="0 0 1015.09 131.47">
  <g id="Layer_1-2" data-name="Layer 1">
    <g>
      <g>
        <path d="M162.78,25.07h14.11V58.67l33.49-33.6h17.58l-37.86,36.85,42.78,42.22h-18.37l-37.63-37.74v37.74h-14.11V25.07Z"/>
        <path d="M234.68,50.16h12.54v32.03c0,4.82,.45,7.39,1.9,9.63,1.23,1.9,3.7,3.92,8.18,3.92,3.36,0,6.27-1.23,8.62-3.7,2.69-3.02,3.81-6.16,3.81-14.11v-27.78h12.54v53.98h-12.32v-7.73c-.9,3.25-6.38,9.07-16.35,9.07-6.72,0-11.87-2.69-15.34-7.5-3.14-4.59-3.58-9.18-3.58-15.79V50.16Z"/>
        <path d="M295.27,25.07h12.54V104.15h-12.54V25.07Z"/>
        <path d="M325.74,59.79h-10.42v-9.63h10.42v-17.81h12.54v17.81h10.98v9.63h-10.98v28.11c0,4.82,1.79,6.72,5.71,6.72,1.68,0,3.58-.11,5.26-.45v9.97c-1.79,.45-4.93,.78-8.06,.78-8.51,0-15.46-3.36-15.46-12.66V59.79Z"/>
        <path d="M357.88,50.16h12.54v32.03c0,4.82,.45,7.39,1.9,9.63,1.23,1.9,3.7,3.92,8.18,3.92,3.36,0,6.27-1.23,8.62-3.7,2.69-3.02,3.81-6.16,3.81-14.11v-27.78h12.54v53.98h-12.32v-7.73c-.9,3.25-6.38,9.07-16.35,9.07-6.72,0-11.87-2.69-15.34-7.5-3.14-4.59-3.58-9.18-3.58-15.79V50.16Z"/>
        <path d="M418.47,50.16h12.21v7.95c2.24-4.93,7.73-9.3,15.34-9.3,1.46,0,3.02,.11,3.81,.22v11.76c-.78-.34-2.02-.45-4.82-.45-5.82,0-9.18,2.58-11.42,5.6-2.35,3.47-2.58,7.73-2.58,12.1v26.1h-12.54V50.16Z"/>
        <path d="M495.19,96.98c-2.69,4.82-10.19,8.51-16.58,8.51-20.61,0-25.65-18.82-25.65-28.22s5.26-28.45,25.87-28.45c6.83,0,12.66,3.47,15.68,7.84V25.07h12.54V104.15h-11.87v-7.17Zm-.56-19.71c0-14.9-8.74-18.82-13.66-18.82-11.65,0-15.34,11.42-15.34,18.7,0,6.5,3.36,18.59,15.01,18.59,5.26,0,14-3.7,14-18.48Z"/>
        <path d="M520.05,25.07h12.54v13.44h-12.54v-13.44Zm0,25.09h12.54v53.98h-12.54V50.16Z"/>
        <path d="M545.59,50.16h12.21v7.95c2.24-4.93,7.73-9.3,15.34-9.3,1.46,0,3.02,.11,3.81,.22v11.76c-.78-.34-2.02-.45-4.82-.45-5.82,0-9.18,2.58-11.42,5.6-2.35,3.47-2.58,7.73-2.58,12.1v26.1h-12.54V50.16Z"/>
        <path d="M630.6,88.47c-1.79,7.5-10.42,17.02-23.41,17.02-18.82,0-27.1-13.89-27.1-28.22s9.07-28.45,25.87-28.45c15.34,0,25.65,11.87,25.65,28.22,0,1.46,0,2.8-.11,3.58h-38.75c.34,8.51,4.7,15.57,13.66,15.57,7.84,0,11.42-5.26,12.54-10.53l11.65,2.8Zm-11.65-17.25c0-6.61-4.26-13.1-12.99-13.1s-13.1,5.82-13.1,13.1h26.1Z"/>
        <path d="M641.68,25.07h12.54v46.26l21.95-21.17h16.13l-26.54,24.19,30.58,29.79h-16.13l-25.98-24.98v24.98h-12.54V25.07Z"/>
        <path d="M705.19,59.79h-10.42v-9.63h10.42v-17.81h12.54v17.81h10.98v9.63h-10.98v28.11c0,4.82,1.79,6.72,5.71,6.72,1.68,0,3.58-.11,5.26-.45v9.97c-1.79,.45-4.93,.78-8.06,.78-8.51,0-15.46-3.36-15.46-12.66V59.79Z"/>
        <path d="M733.86,77.27c0-13.78,9.63-28.45,27.1-28.45s26.99,14.67,26.99,28.45-9.52,28.22-26.99,28.22-27.1-14.45-27.1-28.22Zm41.44,0c0-8.62-4.59-18.82-14.34-18.82s-14.45,10.19-14.45,18.82,4.7,18.48,14.45,18.48,14.34-9.86,14.34-18.48Z"/>
        <path d="M797.92,50.16h12.21v7.95c2.24-4.93,7.73-9.3,15.34-9.3,1.46,0,3.02,.11,3.81,.22v11.76c-.78-.34-2.02-.45-4.82-.45-5.82,0-9.18,2.58-11.42,5.6-2.35,3.47-2.58,7.73-2.58,12.1v26.1h-12.54V50.16Z"/>
        <path d="M868.48,104.15c0-.56-.78-4.93-.78-7.06-2.8,5.26-8.51,8.4-16.58,8.4-11.76,0-18.82-7.73-18.82-16.02,0-12.99,9.97-15.68,22.06-17.81,.9,0,6.5-.78,7.62-1.12,5.71-.9,6.27-2.8,6.27-5.38,0-3.47-3.02-7.06-10.19-7.06-6.72,0-11.31,3.13-11.65,10.64l-12.32-2.69c1.01-5.94,4.26-10.3,8.62-13.1,4.37-2.8,9.63-4.14,15.34-4.14,11.98,0,22.18,4.7,22.18,18.59v22.74c0,9.07,.67,13.44,.78,14h-12.54Zm-14.78-7.95c4.48,0,14-2.13,14-12.77v-5.6c-.9,.34-4.82,1.01-6.61,1.34l-4.03,.78c-6.27,1.23-12.1,2.35-12.1,8.74,0,4.03,3.92,7.5,8.74,7.5Z"/>
        <path d="M897.27,59.79h-10.42v-9.63h10.42v-17.81h12.54v17.81h10.98v9.63h-10.98v28.11c0,4.82,1.79,6.72,5.71,6.72,1.68,0,3.58-.11,5.26-.45v9.97c-1.79,.45-4.93,.78-8.06,.78-8.51,0-15.46-3.36-15.46-12.66V59.79Z"/>
        <path d="M976.56,88.47c-1.79,7.5-10.42,17.02-23.41,17.02-18.82,0-27.1-13.89-27.1-28.22s9.07-28.45,25.87-28.45c15.34,0,25.65,11.87,25.65,28.22,0,1.46,0,2.8-.11,3.58h-38.75c.34,8.51,4.7,15.57,13.66,15.57,7.84,0,11.42-5.26,12.54-10.53l11.65,2.8Zm-11.65-17.25c0-6.61-4.26-13.1-12.99-13.1s-13.1,5.82-13.1,13.1h26.1Z"/>
        <path d="M991.57,59.79h-10.42v-9.63h10.42v-17.81h12.54v17.81h10.98v9.63h-10.98v28.11c0,4.82,1.79,6.72,5.71,6.72,1.68,0,3.58-.11,5.26-.45v9.97c-1.79,.45-4.93,.78-8.06,.78-8.51,0-15.46-3.36-15.46-12.66V59.79Z"/>
      </g>
      <g>
        <polygon points="71.18 18.97 76.25 11.46 56.72 0 49.21 4.51 49.21 15.03 56.86 10.57 71.18 18.97"/>
        <path d="M84.89,16.34l-27.23,44.71h0s0,0,0,0l-18.41,30.23V10.14L0,32.87V98.61l32.68,19.53,25.91-42.32,31.94,35.93,22.16-13.15V32.87l-27.8-16.53ZM30.24,25.76V106.22l-21.22-12.81V38.18l21.22-12.42Zm57.1,2.62l16.33,9.74v55.15l-11.24,6.75-28.92-32.42,23.83-39.22Z"/>
        <polygon points="56.74 120.87 47.14 115.51 42.26 123.02 56.72 131.47 81.7 116.82 75.69 109.87 56.74 120.87"/>
      </g>
    </g>
  </g>
</svg>