<?xml version="1.0" encoding="UTF-8"?><svg id="Layer_1" xmlns="http://www.w3.org/2000/svg" viewBox="0 0 1000 146.336"><path d="M63.278,145.277c-7.645,0-12.684-4.692-14.074-14.074l-7.993-51.432h-1.39l.695,53.517c0,7.298-4.691,11.989-11.989,11.989s-11.989-4.692-11.989-11.989V12.875c0-7.124,4.865-11.989,11.989-11.989s11.989,4.865,11.989,11.989l-.695,51.432h1.39l8.862-50.563c1.564-8.514,5.734-12.858,13.031-12.858,8.514,0,13.727,6.081,10.947,17.549l-12.163,50.042,13.032,56.818c3.127,13.9-2.78,19.982-11.642,19.982Z"/><path d="M132.78,42.066v77.669c0,16.159-9.731,26.237-26.585,26.237-16.681,0-26.411-10.078-26.411-26.237V42.066c0-6.777,4.692-11.468,11.468-11.468s11.468,4.691,11.468,11.468v78.19c0,3.475,1.216,5.212,3.475,5.212,2.433,0,3.649-1.737,3.649-5.212V42.066c0-6.777,4.865-11.468,11.468-11.468s11.468,4.691,11.468,11.468Z"/><path d="M194.287,50.232v83.576c0,6.777-4.692,11.468-11.468,11.468s-11.468-4.692-11.468-11.468V54.75c0-3.301-1.564-4.865-4.518-4.865-1.911,0-3.649.695-4.518,1.911v82.013c0,6.777-4.865,11.468-11.468,11.468s-11.468-4.692-11.468-11.468V42.066c0-6.777,4.692-11.468,11.468-11.468,6.429,0,11.468,4.691,11.641,10.947h.695c2.78-7.471,8.166-11.294,15.116-11.294,9.383,0,15.986,7.124,15.986,19.982Z"/><path d="M199.67,123.383v-11.989c0-6.255,4.344-10.773,10.773-10.773s10.773,4.518,10.773,10.773v9.73c0,2.606,1.043,4.17,3.302,4.17,2.432,0,3.475-1.564,3.475-4.17v-9.73c0-7.298-2.259-9.73-6.429-12.337l-9.383-6.081c-6.603-4.344-12.51-10.599-12.51-23.631v-15.117c0-14.769,9.904-24.326,25.889-24.326s25.369,8.688,25.369,22.588v11.989c0,6.255-4.344,10.773-10.773,10.773s-10.773-4.518-10.773-10.773v-9.731c0-2.606-1.043-4.17-3.301-4.17-2.433,0-3.475,1.564-3.475,4.17v9.731c0,7.298,2.259,9.73,6.429,12.336l9.383,6.082c6.602,4.344,12.51,10.599,12.51,23.631v15.117c0,14.769-9.904,24.326-25.89,24.326s-25.368-8.688-25.368-22.588Z"/><path d="M294.54,40.155c0,5.386-3.996,9.383-9.383,9.383h-.347v84.271c0,6.777-4.691,11.468-11.468,11.468s-11.468-4.692-11.468-11.468V49.537h-.348c-5.56,0-9.382-3.996-9.382-9.383,0-5.56,3.822-9.557,9.382-9.557h.348V12.354c0-6.777,4.518-11.468,11.468-11.468s11.468,4.691,11.468,11.468v18.244h.347c5.386,0,9.383,3.996,9.383,9.557Z"/><path d="M352.225,50.232v83.576c0,6.777-4.691,11.468-11.468,11.468s-11.468-4.692-11.468-11.468V54.75c0-3.301-1.564-4.865-4.518-4.865-1.911,0-3.475,1.043-4.344,2.259v81.665c0,6.603-4.691,11.468-11.468,11.468s-11.468-4.865-11.468-11.468V12.18c0-6.429,4.518-11.294,11.468-11.294s11.468,4.865,11.468,11.294v29.365h.695c3.302-7.471,8.514-11.294,15.291-11.294,9.209,0,15.812,7.298,15.812,19.982Z"/><path d="M357.784,108.962c0-17.376,6.95-26.063,23.457-30.581l7.298-2.085v-21.372c0-2.78-1.043-4.518-3.475-4.518s-3.475,1.738-3.475,4.518v9.035c0,6.082-3.823,11.294-10.947,11.294s-10.947-5.212-10.947-11.294v-9.557c0-16.159,10.773-24.499,26.237-24.499,17.028,0,25.542,8.34,25.542,24.499v79.406c0,6.777-5.039,11.468-11.468,11.468s-11.468-4.692-11.468-11.468v-.695h-.695c-2.259,8.167-7.471,12.51-14.074,12.51-9.73,0-15.985-6.95-15.985-20.33v-16.333ZM380.719,107.05v14.074c0,3.475,1.564,5.213,3.823,5.213,1.564,0,2.78-.521,3.996-1.564v-29.538l-2.259.695c-4.17,1.564-5.56,4.692-5.56,11.12Z"/><path d="M429.196.886c6.602,0,11.468,5.039,11.468,11.468v121.455c0,6.777-4.865,11.468-11.468,11.468s-11.468-4.692-11.468-11.468V12.354c0-6.429,4.865-11.468,11.468-11.468Z"/><path d="M458.734.886c6.602,0,11.468,5.039,11.468,11.468v121.455c0,6.777-4.865,11.468-11.468,11.468s-11.468-4.692-11.468-11.468V12.354c0-6.429,4.865-11.468,11.468-11.468Z"/><path d="M496.958,120.603v-16.681c0-6.603,4.518-11.12,11.468-11.12,7.124,0,11.641,4.518,11.641,11.12v15.638c0,2.78,1.39,4.17,3.649,4.17s3.649-1.39,3.649-4.17v-16.854c0-8.861-2.433-12.163-7.645-16.507l-8.862-7.298c-7.645-6.081-14.421-14.769-14.421-32.318v-20.851c0-15.465,10.077-25.542,27.453-25.542s27.453,10.078,27.453,25.542v16.507c0,6.602-4.518,11.12-11.642,11.12-6.951,0-11.468-4.518-11.468-11.12v-15.465c0-2.78-1.39-4.17-3.649-4.17s-3.649,1.39-3.649,4.17v16.681c0,8.862,2.433,12.337,7.645,16.681l9.382,7.645c7.471,5.908,13.9,14.769,13.9,31.797v21.024c0,14.943-10.251,25.542-27.453,25.542-17.375,0-27.453-9.73-27.453-25.542Z"/><path d="M596.344,40.155c0,5.386-3.996,9.383-9.383,9.383h-.347v84.271c0,6.777-4.691,11.468-11.468,11.468s-11.468-4.692-11.468-11.468V49.537h-.347c-5.56,0-9.383-3.996-9.383-9.383,0-5.56,3.823-9.557,9.383-9.557h.347V12.354c0-6.777,4.517-11.468,11.468-11.468s11.468,4.691,11.468,11.468v18.244h.347c5.387,0,9.383,3.996,9.383,9.557Z"/><path d="M595.822,108.962c0-17.376,6.95-26.063,23.457-30.581l7.297-2.085v-21.372c0-2.78-1.042-4.518-3.475-4.518s-3.475,1.738-3.475,4.518v9.035c0,6.082-3.822,11.294-10.947,11.294s-10.946-5.212-10.946-11.294v-9.557c0-16.159,10.773-24.499,26.237-24.499,17.028,0,25.542,8.34,25.542,24.499v79.406c0,6.777-5.04,11.468-11.468,11.468s-11.469-4.692-11.469-11.468v-.695h-.695c-2.259,8.167-7.471,12.51-14.074,12.51-9.731,0-15.986-6.95-15.986-20.33v-16.333ZM618.758,107.05v14.074c0,3.475,1.564,5.213,3.823,5.213,1.564,0,2.779-.521,3.996-1.564v-29.538l-2.259.695c-4.17,1.564-5.56,4.692-5.56,11.12Z"/><path d="M665.498,133.983l-11.989-88.789c-1.564-9.036,4.344-14.596,11.815-14.596,6.777,0,11.468,4.344,11.816,11.989l3.127,74.715h1.39l3.127-74.715c.347-7.645,5.387-11.989,11.816-11.989,7.471,0,13.552,5.56,11.988,14.596l-12.163,88.789c-.869,6.602-6.082,11.294-12.858,11.294h-5.212c-6.777,0-11.989-4.692-12.858-11.294Z"/><path d="M710.503,108.962c0-17.376,6.95-26.063,23.457-30.581l7.297-2.085v-21.372c0-2.78-1.042-4.518-3.475-4.518s-3.475,1.738-3.475,4.518v9.035c0,6.082-3.822,11.294-10.946,11.294s-10.947-5.212-10.947-11.294v-9.557c0-16.159,10.773-24.499,26.237-24.499,17.028,0,25.542,8.34,25.542,24.499v79.406c0,6.777-5.04,11.468-11.468,11.468s-11.469-4.692-11.469-11.468v-.695h-.695c-2.259,8.167-7.471,12.51-14.074,12.51-9.731,0-15.986-6.95-15.986-20.33v-16.333ZM733.438,107.05v14.074c0,3.475,1.564,5.213,3.822,5.213,1.565,0,2.781-.521,3.996-1.564v-29.538l-2.259.695c-4.17,1.564-5.56,4.692-5.56,11.12Z"/><path d="M825.353,50.232v83.576c0,6.777-4.691,11.468-11.468,11.468s-11.468-4.692-11.468-11.468V54.75c0-3.301-1.564-4.865-4.517-4.865-1.912,0-3.649.695-4.518,1.911v82.013c0,6.777-4.865,11.468-11.468,11.468s-11.468-4.692-11.468-11.468V42.066c0-6.777,4.691-11.468,11.468-11.468,6.429,0,11.468,4.691,11.642,10.947h.695c2.78-7.471,8.166-11.294,15.117-11.294,9.382,0,15.985,7.124,15.985,19.982Z"/><path d="M858.017,29.903c3.475,0,6.603.347,9.731,1.216,0-1.39-.174-3.475.173-6.951.696-6.776,4.171-13.031,10.773-13.031,6.429,0,11.294,5.908,11.294,12.337,0,5.386-2.607,7.645-5.213,7.645-2.78,0-3.649-2.259-6.603-2.259-2.259,0-3.648,2.085-4.344,4.518,6.777,3.649,11.294,10.251,11.294,19.982v17.028c0,14.595-10.946,23.283-27.106,23.283-3.302,0-6.255-.347-9.035-1.042-.522,1.564-.695,2.78-.695,3.822,0,1.738,1.216,3.128,3.996,3.128h15.637c12.511,0,19.113,6.603,19.113,20.677v1.911c0,15.985-7.645,23.804-22.588,23.804h-15.638c-10.599,0-18.418-3.127-18.418-13.205v-.695c0-6.777,3.822-10.773,10.077-13.727-6.428-1.737-9.035-6.081-9.035-11.815v-.869c0-6.255,4.171-11.989,11.12-15.464-7.124-3.823-11.468-10.599-11.468-19.808v-17.028c0-16.159,12.337-23.457,26.932-23.457ZM850.545,126.337h11.642c2.259,0,4.17-.869,4.17-3.475v-.174c0-2.78-1.737-3.649-4.17-3.649h-14.769c-.869,1.39-1.042,2.432-1.042,3.475,0,2.433,1.215,3.823,4.17,3.823ZM858.017,48.842c-2.78,0-4.17,1.564-4.17,4.865v16.159c0,3.302,1.39,4.865,4.17,4.865,2.954,0,4.344-1.564,4.344-4.865v-16.159c0-3.302-1.39-4.865-4.344-4.865Z"/><path d="M914.659,93.671v26.411c0,2.954,1.39,4.518,4.17,4.518,2.607,0,3.823-1.564,3.823-4.518v-9.036c0-5.734,4.517-10.599,10.946-10.599s11.12,4.518,11.12,10.599v10.947c0,14.769-10.251,24.152-26.237,24.152-16.854,0-26.758-10.078-26.758-26.237V55.792c0-15.985,9.73-26.063,26.585-26.063,16.681,0,26.585,9.904,26.585,26.063l-.174,26.585c0,6.777-4.518,11.294-11.294,11.294h-18.766ZM918.308,50.059c-2.433,0-3.649,1.737-3.649,5.213v21.024h7.297v-21.024c0-3.475-1.215-5.213-3.648-5.213Z"/><path d="M962.614,145.277c-6.603,0-11.468-4.692-11.468-11.468V42.066c0-6.777,4.864-11.468,11.468-11.468s11.468,4.691,11.468,11.468v4.344h.695c2.607-11.294,7.819-16.854,14.075-16.854s10.946,6.082,10.946,17.549-3.996,17.028-10.251,17.028c-7.124,0-7.471-10.078-12.337-10.078-1.042,0-2.085.695-3.127,2.78v76.973c0,6.777-4.865,11.468-11.468,11.468Z"/></svg>